<svg width="20.000000" height="20.000000" viewBox="0 0 20 20" fill="none" xmlns="http://www.w3.org/2000/svg" xmlns:xlink="http://www.w3.org/1999/xlink">
	<desc>
			Created with Pixso.
	</desc>
	<defs/>
	<path id="Oval" d="M20 10C20 15.52 15.52 20 10 20C4.47 20 0 15.52 0 10C0 4.47 4.47 0 10 0C15.52 0 20 4.47 20 10ZM17.79 8.19Q18 9.07 18 10Q18 10.92 17.79 11.8Q17.64 12.47 17.37 13.11Q17.09 13.77 16.7 14.36Q16.25 15.06 15.65 15.65Q15.06 16.25 14.36 16.7Q13.77 17.09 13.11 17.37Q12.47 17.64 11.8 17.79Q10.92 18 10 18Q9.07 18 8.19 17.79Q7.52 17.64 6.88 17.37Q6.22 17.09 5.63 16.7Q4.93 16.25 4.34 15.65Q3.74 15.06 3.29 14.36Q2.9 13.77 2.62 13.11Q2.35 12.47 2.2 11.8Q2 10.92 2 10Q2 9.07 2.2 8.19Q2.35 7.52 2.62 6.88Q2.9 6.22 3.29 5.63Q3.74 4.93 4.34 4.34Q4.93 3.74 5.63 3.29Q6.22 2.9 6.88 2.62Q7.52 2.35 8.19 2.2Q9.07 2 10 2Q10.92 2 11.8 2.2Q12.47 2.35 13.11 2.62Q13.77 2.9 14.36 3.29Q15.06 3.74 15.65 4.34Q16.25 4.94 16.7 5.63Q17.09 6.22 17.37 6.88Q17.64 7.52 17.79 8.19Z" fill="#FFFFFF" fill-opacity="1.000000" fill-rule="evenodd"/>
</svg>
